<mxfile host="app.diagrams.net" agent="Mozilla/5.0 (Windows NT 10.0; Win64; x64) AppleWebKit/537.36 (KHTML, like Gecko) Chrome/139.0.0.0 Safari/537.36 Edg/139.0.0.0" version="28.0.9">
  <diagram name="Page-1" id="niKoyUxk1E45Sv1qOZ7j">
    <mxGraphModel dx="1090" dy="619" grid="1" gridSize="10" guides="1" tooltips="1" connect="1" arrows="1" fold="1" page="1" pageScale="1" pageWidth="827" pageHeight="1169" math="0" shadow="0">
      <root>
        <mxCell id="0" />
        <mxCell id="1" parent="0" />
        <mxCell id="tIGK-cYos_zNkh4vh_UW-1" value="Automated Customer Support System" style="rounded=1;whiteSpace=wrap;html=1;dashed=1;verticalAlign=bottom;fontSize=14;" vertex="1" parent="1">
          <mxGeometry x="200" y="40" width="980" height="820" as="geometry" />
        </mxCell>
        <mxCell id="tIGK-cYos_zNkh4vh_UW-19" value="" style="endArrow=none;html=1;rounded=0;" edge="1" parent="1" source="tIGK-cYos_zNkh4vh_UW-3" target="tIGK-cYos_zNkh4vh_UW-9">
          <mxGeometry width="50" height="50" relative="1" as="geometry">
            <mxPoint x="150" y="690" as="sourcePoint" />
            <mxPoint x="600" y="685" as="targetPoint" />
          </mxGeometry>
        </mxCell>
        <mxCell id="tIGK-cYos_zNkh4vh_UW-30" value="Text" style="edgeLabel;html=1;align=center;verticalAlign=middle;resizable=0;points=[];" vertex="1" connectable="0" parent="tIGK-cYos_zNkh4vh_UW-19">
          <mxGeometry x="0.0378" y="-5" relative="1" as="geometry">
            <mxPoint as="offset" />
          </mxGeometry>
        </mxCell>
        <mxCell id="tIGK-cYos_zNkh4vh_UW-31" value="Text" style="edgeLabel;html=1;align=center;verticalAlign=middle;resizable=0;points=[];" vertex="1" connectable="0" parent="tIGK-cYos_zNkh4vh_UW-19">
          <mxGeometry x="0.152" y="-5" relative="1" as="geometry">
            <mxPoint as="offset" />
          </mxGeometry>
        </mxCell>
        <mxCell id="tIGK-cYos_zNkh4vh_UW-3" value="&lt;span style=&quot;background-color: light-dark(#ffffff, var(--ge-dark-color, #121212));&quot;&gt;Support Agent&lt;/span&gt;" style="shape=actor;whiteSpace=wrap;html=1;" vertex="1" parent="1">
          <mxGeometry x="80" y="650" width="60" height="80" as="geometry" />
        </mxCell>
        <mxCell id="tIGK-cYos_zNkh4vh_UW-2" value="&lt;span style=&quot;background-color: light-dark(#ffffff, var(--ge-dark-color, #121212));&quot;&gt;Customer&lt;/span&gt;" style="shape=actor;whiteSpace=wrap;html=1;" vertex="1" parent="1">
          <mxGeometry x="80" y="300" width="60" height="80" as="geometry" />
        </mxCell>
        <mxCell id="tIGK-cYos_zNkh4vh_UW-4" value="&lt;b&gt;Knowledge Base&lt;/b&gt;&lt;br&gt;&amp;lt;&amp;lt;Secondary System&amp;gt;&amp;gt;" style="rounded=1;whiteSpace=wrap;html=1;align=center;" vertex="1" parent="1">
          <mxGeometry x="1220" y="150" width="140" height="70" as="geometry" />
        </mxCell>
        <mxCell id="tIGK-cYos_zNkh4vh_UW-5" value="&lt;b&gt;Customer Transaction DB&lt;/b&gt;&lt;br&gt;&amp;lt;&amp;lt;Secondary System&amp;gt;&amp;gt;" style="rounded=1;whiteSpace=wrap;html=1;align=center;" vertex="1" parent="1">
          <mxGeometry x="1220" y="380" width="140" height="70" as="geometry" />
        </mxCell>
        <mxCell id="tIGK-cYos_zNkh4vh_UW-6" value="UC-3.1:&lt;br&gt;Request General Information" style="ellipse;whiteSpace=wrap;html=1;align=center;" vertex="1" parent="1">
          <mxGeometry x="280" y="150" width="180" height="80" as="geometry" />
        </mxCell>
        <mxCell id="tIGK-cYos_zNkh4vh_UW-7" value="UC-3.2:&lt;br&gt;Request Personalized Information" style="ellipse;whiteSpace=wrap;html=1;align=center;" vertex="1" parent="1">
          <mxGeometry x="280" y="380" width="180" height="80" as="geometry" />
        </mxCell>
        <mxCell id="tIGK-cYos_zNkh4vh_UW-8" value="UC-3.3:&lt;br&gt;Request Human Agent" style="ellipse;whiteSpace=wrap;html=1;align=center;" vertex="1" parent="1">
          <mxGeometry x="280" y="265" width="180" height="80" as="geometry" />
        </mxCell>
        <mxCell id="tIGK-cYos_zNkh4vh_UW-9" value="UC-3.4:&lt;br&gt;Handle Complex / Complaint Case" style="ellipse;whiteSpace=wrap;html=1;align=center;" vertex="1" parent="1">
          <mxGeometry x="600" y="640" width="180" height="90" as="geometry" />
        </mxCell>
        <mxCell id="tIGK-cYos_zNkh4vh_UW-11" value="UC-3.1.1:&lt;br&gt;Query Knowledge Base" style="ellipse;whiteSpace=wrap;html=1;align=center;dashed=1;" vertex="1" parent="1">
          <mxGeometry x="600" y="150" width="180" height="80" as="geometry" />
        </mxCell>
        <mxCell id="tIGK-cYos_zNkh4vh_UW-12" value="UC-3.2.1:&lt;br&gt;Authenticate User" style="ellipse;whiteSpace=wrap;html=1;align=center;dashed=1;" vertex="1" parent="1">
          <mxGeometry x="600" y="320" width="180" height="80" as="geometry" />
        </mxCell>
        <mxCell id="tIGK-cYos_zNkh4vh_UW-10" value="&lt;span style=&quot;background-color: light-dark(#ffffff, var(--ge-dark-color, #121212));&quot;&gt;UC-3.5:&lt;br&gt;Receive Escalated Conversation&lt;/span&gt;" style="ellipse;whiteSpace=wrap;html=1;align=center;" vertex="1" parent="1">
          <mxGeometry x="280" y="640" width="180" height="90" as="geometry" />
        </mxCell>
        <mxCell id="tIGK-cYos_zNkh4vh_UW-13" value="UC-3.2.2:&lt;br&gt;Query Transaction DB" style="ellipse;whiteSpace=wrap;html=1;align=center;dashed=1;" vertex="1" parent="1">
          <mxGeometry x="600" y="440" width="180" height="80" as="geometry" />
        </mxCell>
        <mxCell id="tIGK-cYos_zNkh4vh_UW-14" value="UC-3.4.1:&lt;br&gt;Summarize Conversation" style="ellipse;whiteSpace=wrap;html=1;align=center;dashed=1;" vertex="1" parent="1">
          <mxGeometry x="920" y="580" width="180" height="80" as="geometry" />
        </mxCell>
        <mxCell id="tIGK-cYos_zNkh4vh_UW-15" value="UC-3.4.2:&lt;br&gt;Create Support Ticket" style="ellipse;whiteSpace=wrap;html=1;align=center;dashed=1;" vertex="1" parent="1">
          <mxGeometry x="920" y="700" width="180" height="80" as="geometry" />
        </mxCell>
        <mxCell id="tIGK-cYos_zNkh4vh_UW-16" value="" style="endArrow=none;html=1;rounded=0;" edge="1" parent="1" source="tIGK-cYos_zNkh4vh_UW-2" target="tIGK-cYos_zNkh4vh_UW-6">
          <mxGeometry width="50" height="50" relative="1" as="geometry">
            <mxPoint x="150" y="320" as="sourcePoint" />
            <mxPoint x="280" y="190" as="targetPoint" />
          </mxGeometry>
        </mxCell>
        <mxCell id="tIGK-cYos_zNkh4vh_UW-17" value="" style="endArrow=none;html=1;rounded=0;" edge="1" parent="1" source="tIGK-cYos_zNkh4vh_UW-2" target="tIGK-cYos_zNkh4vh_UW-7">
          <mxGeometry width="50" height="50" relative="1" as="geometry">
            <mxPoint x="150" y="360" as="sourcePoint" />
            <mxPoint x="280" y="420" as="targetPoint" />
          </mxGeometry>
        </mxCell>
        <mxCell id="tIGK-cYos_zNkh4vh_UW-18" value="" style="endArrow=none;html=1;rounded=0;" edge="1" parent="1" source="tIGK-cYos_zNkh4vh_UW-2" target="tIGK-cYos_zNkh4vh_UW-8">
          <mxGeometry width="50" height="50" relative="1" as="geometry">
            <mxPoint x="150" y="340" as="sourcePoint" />
            <mxPoint x="280" y="305" as="targetPoint" />
          </mxGeometry>
        </mxCell>
        <mxCell id="tIGK-cYos_zNkh4vh_UW-20" value="" style="endArrow=none;html=1;rounded=0;" edge="1" parent="1" source="tIGK-cYos_zNkh4vh_UW-3" target="tIGK-cYos_zNkh4vh_UW-10">
          <mxGeometry width="50" height="50" relative="1" as="geometry">
            <mxPoint x="150" y="685" as="sourcePoint" />
            <mxPoint x="280" y="685" as="targetPoint" />
          </mxGeometry>
        </mxCell>
        <mxCell id="tIGK-cYos_zNkh4vh_UW-21" value="" style="endArrow=none;html=1;rounded=0;" edge="1" parent="1" source="tIGK-cYos_zNkh4vh_UW-11" target="tIGK-cYos_zNkh4vh_UW-4">
          <mxGeometry width="50" height="50" relative="1" as="geometry">
            <mxPoint x="780" y="190" as="sourcePoint" />
            <mxPoint x="1220" y="185" as="targetPoint" />
          </mxGeometry>
        </mxCell>
        <mxCell id="tIGK-cYos_zNkh4vh_UW-22" value="" style="endArrow=none;html=1;rounded=0;" edge="1" parent="1" source="tIGK-cYos_zNkh4vh_UW-13" target="tIGK-cYos_zNkh4vh_UW-5">
          <mxGeometry width="50" height="50" relative="1" as="geometry">
            <mxPoint x="780" y="480" as="sourcePoint" />
            <mxPoint x="1220" y="415" as="targetPoint" />
          </mxGeometry>
        </mxCell>
        <mxCell id="tIGK-cYos_zNkh4vh_UW-23" value="&amp;lt;&amp;lt;include&amp;gt;&amp;gt;" style="endArrow=classic;html=1;rounded=0;dashed=1;dashPattern=8 8;" edge="1" parent="1" source="tIGK-cYos_zNkh4vh_UW-6" target="tIGK-cYos_zNkh4vh_UW-11">
          <mxGeometry width="50" height="50" relative="1" as="geometry">
            <mxPoint x="460" y="190" as="sourcePoint" />
            <mxPoint x="600" y="190" as="targetPoint" />
          </mxGeometry>
        </mxCell>
        <mxCell id="tIGK-cYos_zNkh4vh_UW-24" value="&amp;lt;&amp;lt;include&amp;gt;&amp;gt;" style="endArrow=classic;html=1;rounded=0;dashed=1;dashPattern=8 8;" edge="1" parent="1" source="tIGK-cYos_zNkh4vh_UW-7" target="tIGK-cYos_zNkh4vh_UW-12">
          <mxGeometry width="50" height="50" relative="1" as="geometry">
            <mxPoint x="460" y="420" as="sourcePoint" />
            <mxPoint x="600" y="360" as="targetPoint" />
          </mxGeometry>
        </mxCell>
        <mxCell id="tIGK-cYos_zNkh4vh_UW-25" value="&amp;lt;&amp;lt;include&amp;gt;&amp;gt;" style="endArrow=classic;html=1;rounded=0;dashed=1;dashPattern=8 8;" edge="1" parent="1" source="tIGK-cYos_zNkh4vh_UW-7" target="tIGK-cYos_zNkh4vh_UW-13">
          <mxGeometry width="50" height="50" relative="1" as="geometry">
            <mxPoint x="460" y="420" as="sourcePoint" />
            <mxPoint x="600" y="480" as="targetPoint" />
          </mxGeometry>
        </mxCell>
        <mxCell id="tIGK-cYos_zNkh4vh_UW-26" value="&amp;lt;&amp;lt;include&amp;gt;&amp;gt;" style="endArrow=classic;html=1;rounded=0;dashed=1;dashPattern=8 8;" edge="1" parent="1" source="tIGK-cYos_zNkh4vh_UW-9" target="tIGK-cYos_zNkh4vh_UW-14">
          <mxGeometry width="50" height="50" relative="1" as="geometry">
            <mxPoint x="780" y="685" as="sourcePoint" />
            <mxPoint x="920" y="620" as="targetPoint" />
          </mxGeometry>
        </mxCell>
        <mxCell id="tIGK-cYos_zNkh4vh_UW-27" value="&amp;lt;&amp;lt;include&amp;gt;&amp;gt;" style="endArrow=classic;html=1;rounded=0;dashed=1;dashPattern=8 8;" edge="1" parent="1" source="tIGK-cYos_zNkh4vh_UW-9" target="tIGK-cYos_zNkh4vh_UW-15">
          <mxGeometry width="50" height="50" relative="1" as="geometry">
            <mxPoint x="780" y="685" as="sourcePoint" />
            <mxPoint x="920" y="740" as="targetPoint" />
          </mxGeometry>
        </mxCell>
        <mxCell id="tIGK-cYos_zNkh4vh_UW-28" value="&amp;lt;&amp;lt;extend&amp;gt;&amp;gt;" style="endArrow=classic;html=1;rounded=0;dashed=1;dashPattern=8 8;" edge="1" parent="1" source="tIGK-cYos_zNkh4vh_UW-8" target="tIGK-cYos_zNkh4vh_UW-6">
          <mxGeometry width="50" height="50" relative="1" as="geometry">
            <mxPoint x="370" y="265" as="sourcePoint" />
            <mxPoint x="370" y="230" as="targetPoint" />
          </mxGeometry>
        </mxCell>
        <mxCell id="tIGK-cYos_zNkh4vh_UW-29" value="&amp;lt;&amp;lt;extend&amp;gt;&amp;gt;" style="endArrow=classic;html=1;rounded=0;dashed=1;dashPattern=8 8;" edge="1" parent="1" source="tIGK-cYos_zNkh4vh_UW-8" target="tIGK-cYos_zNkh4vh_UW-7">
          <mxGeometry width="50" height="50" relative="1" as="geometry">
            <mxPoint x="370" y="345" as="sourcePoint" />
            <mxPoint x="370" y="380" as="targetPoint" />
          </mxGeometry>
        </mxCell>
      </root>
    </mxGraphModel>
  </diagram>
</mxfile>
